<?xml version="1.0" encoding="UTF-8" standalone="no"?>
<!-- Created with Inkscape (http://www.inkscape.org/) -->

<svg
   xmlns:dc="http://purl.org/dc/elements/1.1/"
   xmlns:cc="http://creativecommons.org/ns#"
   xmlns:rdf="http://www.w3.org/1999/02/22-rdf-syntax-ns#"
   xmlns:svg="http://www.w3.org/2000/svg"
   xmlns="http://www.w3.org/2000/svg"
   version="1.1"
   width="512"
   height="512"
   id="svg2">
  <defs
     id="defs4">
    <clipPath
       id="clipPath3773">
      <path
         d="m 496,256 a 240,240 0 1 1 -480,0 240,240 0 1 1 480,0 z"
         id="path3775"
         style="fill:#f44336;fill-opacity:1;stroke:none" />
    </clipPath>
    <filter
       color-interpolation-filters="sRGB"
       id="filter3796">
      <feGaussianBlur
         id="feGaussianBlur3798"
         stdDeviation="2.4" />
    </filter>
  </defs>
  <metadata
     id="metadata7">
    <rdf:RDF>
      <cc:Work
         rdf:about="">
        <dc:format>image/svg+xml</dc:format>
        <dc:type
           rdf:resource="http://purl.org/dc/dcmitype/StillImage" />
        <dc:title></dc:title>
      </cc:Work>
    </rdf:RDF>
  </metadata>
  <g
     transform="translate(0,-540.36218)"
     id="layer1">
    <path
       d="m 496,256 a 240,240 0 1 1 -480,0 240,240 0 1 1 480,0 z"
       transform="translate(10,550.36218)"
       id="path3778"
       style="opacity:0.25;fill:#000000;fill-opacity:1;stroke:none;filter:url(#filter3796)" />
    <path
       d="m 496,256 a 240,240 0 1 1 -480,0 240,240 0 1 1 480,0 z"
       transform="translate(0,540.36218)"
       id="path2987"
       style="fill:#f44336;fill-opacity:1;stroke:none" />
    <path
       d="M 120,344 392,168 576,352 312,536 z"
       transform="translate(0,540.36218)"
       clip-path="url(#clipPath3773)"
       id="rect3764"
       style="fill:#c62517;fill-opacity:1;stroke:none" />
    <rect
       width="288"
       height="192"
       ry="23.999998"
       x="112"
       y="700.36218"
       id="rect3757"
       style="fill:#ffffff;fill-opacity:1;stroke:none" />
    <path
       d="m 128,176 0,0 c 0,0 104,112 128,112 24,0 128,-112 128,-112 l 0,0 c 0,0 -112,88 -128,88 -16,0 -128,-88 -128,-88 z"
       transform="translate(0,540.36218)"
       id="rect3759"
       style="fill:#f44336;fill-opacity:1;stroke:none" />
  </g>
</svg>
